<?xml version="1.0" encoding="UTF-8" standalone="no"?>
<!-- Generator: Adobe Illustrator 19.0.0, SVG Export Plug-In . SVG Version: 6.00 Build 0)  -->

<svg
   version="1.1"
   id="Layer_1"
   x="0px"
   y="0px"
   viewBox="0 0 459 459"
   style="enable-background:new 0 0 459 459;"
   xml:space="preserve"
   sodipodi:docname="close.svg"
   inkscape:version="1.2 (dc2aedaf03, 2022-05-15)"
   xmlns:inkscape="http://www.inkscape.org/namespaces/inkscape"
   xmlns:sodipodi="http://sodipodi.sourceforge.net/DTD/sodipodi-0.dtd"
   xmlns="http://www.w3.org/2000/svg"
   xmlns:svg="http://www.w3.org/2000/svg"><defs
   id="defs4926" /><sodipodi:namedview
   id="namedview4924"
   pagecolor="#ffffff"
   bordercolor="#666666"
   borderopacity="1.0"
   inkscape:showpageshadow="2"
   inkscape:pageopacity="0.0"
   inkscape:pagecheckerboard="0"
   inkscape:deskcolor="#d1d1d1"
   showgrid="false"
   inkscape:zoom="0.51416122"
   inkscape:cx="230.47246"
   inkscape:cy="229.5"
   inkscape:window-width="1920"
   inkscape:window-height="1017"
   inkscape:window-x="-8"
   inkscape:window-y="-8"
   inkscape:window-maximized="1"
   inkscape:current-layer="Layer_1" />
<g
   id="g4891"
   style="fill:#f9e084;fill-opacity:1">
	<g
   id="g4889"
   style="fill:#f9e084;fill-opacity:1">
		<path
   d="M229.5,0C102.751,0,0,102.751,0,229.5S102.751,459,229.5,459S459,356.249,459,229.5S356.249,0,229.5,0z M307.105,271.629    c9.797,9.797,9.797,25.68,0,35.477c-4.898,4.898-11.318,7.347-17.738,7.347c-6.42,0-12.84-2.449-17.738-7.347L229.5,264.977    l-42.128,42.129c-4.898,4.898-11.318,7.347-17.738,7.347c-6.42,0-12.84-2.449-17.738-7.347c-9.797-9.796-9.797-25.68,0-35.477    l42.129-42.129l-42.129-42.129c-9.797-9.797-9.797-25.68,0-35.477s25.68-9.797,35.477,0l42.128,42.129l42.128-42.129    c9.797-9.797,25.68-9.797,35.477,0c9.797,9.796,9.797,25.68,0,35.477l-42.13,42.129L307.105,271.629z"
   id="path4887"
   style="fill:#f9e084;fill-opacity:1" />
	</g>
</g>
<g
   id="g4893">
</g>
<g
   id="g4895">
</g>
<g
   id="g4897">
</g>
<g
   id="g4899">
</g>
<g
   id="g4901">
</g>
<g
   id="g4903">
</g>
<g
   id="g4905">
</g>
<g
   id="g4907">
</g>
<g
   id="g4909">
</g>
<g
   id="g4911">
</g>
<g
   id="g4913">
</g>
<g
   id="g4915">
</g>
<g
   id="g4917">
</g>
<g
   id="g4919">
</g>
<g
   id="g4921">
</g>
</svg>
