<?xml version="1.0" encoding="UTF-8" standalone="no"?>
<svg
   width="1024px"
   height="1024px"
   viewBox="0 0 1024 1024"
   version="1.1"
   id="svg3242"
   sodipodi:docname="sound.svg"
   inkscape:version="1.1.1 (3bf5ae0d25, 2021-09-20)"
   xmlns:inkscape="http://www.inkscape.org/namespaces/inkscape"
   xmlns:sodipodi="http://sodipodi.sourceforge.net/DTD/sodipodi-0.dtd"
   xmlns="http://www.w3.org/2000/svg"
   xmlns:svg="http://www.w3.org/2000/svg">
  <defs
     id="defs3246" />
  <sodipodi:namedview
     id="namedview3244"
     pagecolor="#ffffff"
     bordercolor="#666666"
     borderopacity="1.0"
     inkscape:showpageshadow="2"
     inkscape:pageopacity="0.0"
     inkscape:pagecheckerboard="0"
     inkscape:deskcolor="#d1d1d1"
     showgrid="false"
     inkscape:zoom="0.75390625"
     inkscape:cx="512.66321"
     inkscape:cy="511.33679"
     inkscape:window-width="1920"
     inkscape:window-height="991"
     inkscape:window-x="-9"
     inkscape:window-y="-9"
     inkscape:window-maximized="1"
     inkscape:current-layer="svg3242"
     inkscape:pageshadow="2" />
  <path
     fill="#D9D9D9"
     d="M275.4 424H146v176h129.4l18 11.7L586 803V221L293.3 412.3z"
     id="path3238"
     style="fill:#000000;fill-opacity:1" />
  <path
     d="M892.1 737.8l-110.3-63.7a15.9 15.9 0 0 0-21.7 5.9l-19.9 34.5c-4.4 7.6-1.8 17.4 5.8 21.8L856.3 800a15.9 15.9 0 0 0 21.7-5.9l19.9-34.5c4.4-7.6 1.7-17.4-5.8-21.8zM934 476H806c-8.8 0-16 7.2-16 16v40c0 8.8 7.2 16 16 16h128c8.8 0 16-7.2 16-16v-40c0-8.8-7.2-16-16-16zM760 344a15.9 15.9 0 0 0 21.7 5.9L892 286.2c7.6-4.4 10.2-14.2 5.8-21.8L878 230a15.9 15.9 0 0 0-21.7-5.9L746 287.8a15.99 15.99 0 0 0-5.8 21.8L760 344zM625.9 115c-5.9 0-11.9 1.6-17.4 5.3L254 352H90c-8.8 0-16 7.2-16 16v288c0 8.8 7.2 16 16 16h164l354.5 231.7c5.5 3.6 11.6 5.3 17.4 5.3 16.7 0 32.1-13.3 32.1-32.1V147.1c0-18.8-15.4-32.1-32.1-32.1zM586 803L293.4 611.7l-18-11.7H146V424h129.4l17.9-11.7L586 221v582z"
     id="path3240"
     style="fill:#f9e084;fill-opacity:1" />
</svg>
