<?xml version="1.0" encoding="UTF-8" standalone="no"?>
<!-- Generator: Adobe Illustrator 19.0.0, SVG Export Plug-In . SVG Version: 6.00 Build 0)  -->

<svg
   version="1.1"
   id="Layer_1"
   x="0px"
   y="0px"
   viewBox="0 0 512 512"
   style="enable-background:new 0 0 512 512;"
   xml:space="preserve"
   sodipodi:docname="learned.svg"
   inkscape:version="1.2 (dc2aedaf03, 2022-05-15)"
   xmlns:inkscape="http://www.inkscape.org/namespaces/inkscape"
   xmlns:sodipodi="http://sodipodi.sourceforge.net/DTD/sodipodi-0.dtd"
   xmlns="http://www.w3.org/2000/svg"
   xmlns:svg="http://www.w3.org/2000/svg"><defs
   id="defs2857" /><sodipodi:namedview
   id="namedview2855"
   pagecolor="#ffffff"
   bordercolor="#666666"
   borderopacity="1.0"
   inkscape:showpageshadow="2"
   inkscape:pageopacity="0.0"
   inkscape:pagecheckerboard="0"
   inkscape:deskcolor="#d1d1d1"
   showgrid="false"
   inkscape:zoom="0.4609375"
   inkscape:cx="257.08475"
   inkscape:cy="256"
   inkscape:window-width="1920"
   inkscape:window-height="1017"
   inkscape:window-x="-8"
   inkscape:window-y="-8"
   inkscape:window-maximized="1"
   inkscape:current-layer="Layer_1" />
<g
   id="g2822"
   style="fill:#f9e084;fill-opacity:1">
	<g
   id="g2820"
   style="fill:#f9e084;fill-opacity:1">
		<path
   d="M256,0C114.615,0,0,114.615,0,256s114.615,256,256,256s256-114.615,256-256S397.385,0,256,0z M386.594,226.664    L252.747,360.511c-7.551,7.551-17.795,11.794-28.475,11.794s-20.923-4.243-28.475-11.795l-70.388-70.389    c-15.726-15.726-15.726-41.223,0.001-56.95c15.727-15.725,41.224-15.726,56.95,0.001l41.913,41.915l105.371-105.371    c15.727-15.726,41.223-15.726,56.951,0.001C402.319,185.44,402.319,210.938,386.594,226.664z"
   id="path2818"
   style="fill:#f9e084;fill-opacity:1" />
	</g>
</g>
<g
   id="g2824">
</g>
<g
   id="g2826">
</g>
<g
   id="g2828">
</g>
<g
   id="g2830">
</g>
<g
   id="g2832">
</g>
<g
   id="g2834">
</g>
<g
   id="g2836">
</g>
<g
   id="g2838">
</g>
<g
   id="g2840">
</g>
<g
   id="g2842">
</g>
<g
   id="g2844">
</g>
<g
   id="g2846">
</g>
<g
   id="g2848">
</g>
<g
   id="g2850">
</g>
<g
   id="g2852">
</g>
</svg>
