<?xml version="1.0" encoding="UTF-8" standalone="no"?>
<!-- Generator: Adobe Illustrator 19.0.0, SVG Export Plug-In . SVG Version: 6.00 Build 0)  -->

<svg
   version="1.1"
   id="Layer_1"
   x="0px"
   y="0px"
   viewBox="0 0 300 300"
   style="enable-background:new 0 0 300 300;"
   xml:space="preserve"
   sodipodi:docname="next-page.svg"
   inkscape:version="1.2 (dc2aedaf03, 2022-05-15)"
   xmlns:inkscape="http://www.inkscape.org/namespaces/inkscape"
   xmlns:sodipodi="http://sodipodi.sourceforge.net/DTD/sodipodi-0.dtd"
   xmlns="http://www.w3.org/2000/svg"
   xmlns:svg="http://www.w3.org/2000/svg"><sodipodi:namedview
   id="namedview22"
   pagecolor="#ffffff"
   bordercolor="#666666"
   borderopacity="1.0"
   inkscape:showpageshadow="2"
   inkscape:pageopacity="0.0"
   inkscape:pagecheckerboard="0"
   inkscape:deskcolor="#d1d1d1"
   showgrid="false"
   inkscape:zoom="0.78666667"
   inkscape:cx="150.63559"
   inkscape:cy="150"
   inkscape:window-width="1920"
   inkscape:window-height="1017"
   inkscape:window-x="-8"
   inkscape:window-y="-8"
   inkscape:window-maximized="1"
   inkscape:current-layer="Layer_1" /><defs
   id="defs41" />
<g
   id="g6"
   style="fill:#000000;fill-opacity:1">
	<g
   id="g4"
   style="fill:#000000;fill-opacity:1">
		<path
   d="M 150,0 C 67.157,0 0,67.157 0,150 0,232.841 67.157,300 150,300 232.843,300 300,232.841 300,150 300,67.157 232.843,0 150,0 Z m 45.708,160.159 c -0.731,0.731 -1.533,1.349 -2.368,1.886 l -56.295,56.295 c -2.734,2.736 -6.318,4.103 -9.902,4.103 -3.584,0 -7.166,-1.367 -9.902,-4.103 -5.47,-5.47 -5.47,-14.34 0,-19.808 l 48.509,-48.516 -48.265,-48.265 c -5.47,-5.473 -5.47,-14.34 0,-19.808 5.47,-5.47 14.338,-5.467 19.808,-0.003 l 56.046,56.043 c 0.835,0.537 1.637,1.154 2.365,1.886 2.796,2.796 4.145,6.479 4.082,10.146 0.066,3.665 -1.28,7.346 -4.078,10.144 z"
   id="path2"
   style="fill:#000000;fill-opacity:1" />
	</g>
</g>
<g
   id="g8">
</g>
<g
   id="g10">
</g>
<g
   id="g12">
</g>
<g
   id="g14">
</g>
<g
   id="g16">
</g>
<g
   id="g18">
</g>
<g
   id="g20">
</g>
<g
   id="g22">
</g>
<g
   id="g24">
</g>
<g
   id="g26">
</g>
<g
   id="g28">
</g>
<g
   id="g30">
</g>
<g
   id="g32">
</g>
<g
   id="g34">
</g>
<g
   id="g36">
</g>
</svg>
