<?xml version="1.0" encoding="UTF-8" standalone="no"?>
<!-- Generator: Adobe Illustrator 18.0.0, SVG Export Plug-In . SVG Version: 6.00 Build 0)  -->

<svg
   version="1.1"
   id="Capa_1"
   x="0px"
   y="0px"
   viewBox="0 0 465.797 465.797"
   style="enable-background:new 0 0 465.797 465.797;"
   xml:space="preserve"
   sodipodi:docname="stats.svg"
   inkscape:version="1.2 (dc2aedaf03, 2022-05-15)"
   xmlns:inkscape="http://www.inkscape.org/namespaces/inkscape"
   xmlns:sodipodi="http://sodipodi.sourceforge.net/DTD/sodipodi-0.dtd"
   xmlns="http://www.w3.org/2000/svg"
   xmlns:svg="http://www.w3.org/2000/svg"><defs
   id="defs37" /><sodipodi:namedview
   id="namedview35"
   pagecolor="#ffffff"
   bordercolor="#666666"
   borderopacity="1.0"
   inkscape:showpageshadow="2"
   inkscape:pageopacity="0.0"
   inkscape:pagecheckerboard="0"
   inkscape:deskcolor="#d1d1d1"
   showgrid="false"
   inkscape:zoom="0.50665848"
   inkscape:cx="233.88536"
   inkscape:cy="232.8985"
   inkscape:window-width="1920"
   inkscape:window-height="1017"
   inkscape:window-x="-8"
   inkscape:window-y="-8"
   inkscape:window-maximized="1"
   inkscape:current-layer="Capa_1" />
<path
   d="M423.532,0H42.264c-11.046,0-20,8.954-20,20v282.563c0,11.046,8.954,20,20,20h125.651l-50.474,115.203  c-4.433,10.117,0.175,21.912,10.293,26.346c2.612,1.143,5.335,1.686,8.016,1.686c7.701,0,15.041-4.474,18.329-11.979l57.507-131.256  h42.625l57.507,131.256c3.289,7.506,10.628,11.979,18.329,11.979c2.68,0,5.404-0.542,8.016-1.686  c10.118-4.434,14.726-16.228,10.293-26.346l-50.474-115.203h125.651c11.046,0,20-8.954,20-20V20C443.532,8.954,434.578,0,423.532,0z   M151.724,246.587c0,3.879-3.144,7.023-7.023,7.023h-30.433c-3.879,0-7.023-3.144-7.023-7.023V93.587  c0-3.879,3.145-7.023,7.023-7.023h30.433c3.879,0,7.023,3.144,7.023,7.023V246.587z M220.667,246.587  c0,3.879-3.144,7.023-7.023,7.023H183.21c-3.879,0-7.023-3.144-7.023-7.023V133.011c0-3.879,3.144-7.023,7.023-7.023h30.433  c3.879,0,7.023,3.144,7.023,7.023V246.587z M289.609,246.587c0,3.879-3.144,7.023-7.023,7.023h-30.433  c-3.879,0-7.023-3.144-7.023-7.023v-78.283c0-3.879,3.144-7.023,7.023-7.023h30.433c3.879,0,7.023,3.145,7.023,7.023V246.587z   M358.552,246.587c0,3.879-3.144,7.023-7.023,7.023h-30.433c-3.879,0-7.023-3.144-7.023-7.023v-42.729  c0-3.879,3.144-7.023,7.023-7.023h30.433c3.879,0,7.023,3.145,7.023,7.023V246.587z"
   id="path2"
   style="fill:#f9e084;fill-opacity:1" />
<g
   id="g4">
</g>
<g
   id="g6">
</g>
<g
   id="g8">
</g>
<g
   id="g10">
</g>
<g
   id="g12">
</g>
<g
   id="g14">
</g>
<g
   id="g16">
</g>
<g
   id="g18">
</g>
<g
   id="g20">
</g>
<g
   id="g22">
</g>
<g
   id="g24">
</g>
<g
   id="g26">
</g>
<g
   id="g28">
</g>
<g
   id="g30">
</g>
<g
   id="g32">
</g>
</svg>
