<?xml version="1.0" encoding="UTF-8" standalone="no"?>
<!-- Generator: Adobe Illustrator 17.1.0, SVG Export Plug-In . SVG Version: 6.00 Build 0)  -->

<svg
   version="1.1"
   id="Capa_1"
   x="0px"
   y="0px"
   viewBox="0 0 191.667 191.667"
   style="enable-background:new 0 0 191.667 191.667;"
   xml:space="preserve"
   sodipodi:docname="tick.svg"
   inkscape:version="1.1.1 (3bf5ae0d25, 2021-09-20)"
   xmlns:inkscape="http://www.inkscape.org/namespaces/inkscape"
   xmlns:sodipodi="http://sodipodi.sourceforge.net/DTD/sodipodi-0.dtd"
   xmlns="http://www.w3.org/2000/svg"
   xmlns:svg="http://www.w3.org/2000/svg"><defs
   id="defs37" /><sodipodi:namedview
   id="namedview35"
   pagecolor="#ffffff"
   bordercolor="#666666"
   borderopacity="1.0"
   inkscape:pageshadow="2"
   inkscape:pageopacity="0.0"
   inkscape:pagecheckerboard="0"
   showgrid="false"
   inkscape:zoom="4.1843404"
   inkscape:cx="95.714011"
   inkscape:cy="95.952997"
   inkscape:window-width="1920"
   inkscape:window-height="991"
   inkscape:window-x="-9"
   inkscape:window-y="-9"
   inkscape:window-maximized="1"
   inkscape:current-layer="Capa_1" />
<path
   d="M95.833,0C42.991,0,0,42.99,0,95.833s42.991,95.834,95.833,95.834s95.833-42.991,95.833-95.834S148.676,0,95.833,0z   M150.862,79.646l-60.207,60.207c-2.56,2.56-5.963,3.969-9.583,3.969c-3.62,0-7.023-1.409-9.583-3.969l-30.685-30.685  c-2.56-2.56-3.97-5.963-3.97-9.583c0-3.621,1.41-7.024,3.97-9.584c2.559-2.56,5.962-3.97,9.583-3.97c3.62,0,7.024,1.41,9.583,3.971  l21.101,21.1l50.623-50.623c2.56-2.56,5.963-3.969,9.583-3.969c3.62,0,7.023,1.409,9.583,3.969  C156.146,65.765,156.146,74.362,150.862,79.646z"
   id="path2"
   style="fill:#885024;fill-opacity:1" />
<g
   id="g4">
</g>
<g
   id="g6">
</g>
<g
   id="g8">
</g>
<g
   id="g10">
</g>
<g
   id="g12">
</g>
<g
   id="g14">
</g>
<g
   id="g16">
</g>
<g
   id="g18">
</g>
<g
   id="g20">
</g>
<g
   id="g22">
</g>
<g
   id="g24">
</g>
<g
   id="g26">
</g>
<g
   id="g28">
</g>
<g
   id="g30">
</g>
<g
   id="g32">
</g>
</svg>
